<mxfile host="app.diagrams.net" agent="Mozilla/5.0 (X11; Linux x86_64; rv:134.0) Gecko/20100101 Firefox/134.0" version="26.0.10">
  <diagram name="PÃ¡gina-1" id="L3K4bLExbtTJExAs54S-">
    <mxGraphModel dx="2070" dy="716" grid="1" gridSize="10" guides="1" tooltips="1" connect="1" arrows="1" fold="1" page="1" pageScale="1" pageWidth="827" pageHeight="1169" math="0" shadow="0">
      <root>
        <mxCell id="0" />
        <mxCell id="1" parent="0" />
        <mxCell id="42KANhCV3RdPrASDDmub-1" value="&lt;div&gt;all_repos&lt;/div&gt;" style="swimlane;childLayout=stackLayout;horizontal=1;startSize=50;horizontalStack=0;rounded=1;fontSize=14;fontStyle=0;strokeWidth=2;resizeParent=0;resizeLast=1;shadow=0;dashed=0;align=center;arcSize=4;whiteSpace=wrap;html=1;" vertex="1" parent="1">
          <mxGeometry x="40" y="240" width="160" height="120" as="geometry" />
        </mxCell>
        <mxCell id="42KANhCV3RdPrASDDmub-2" value="&lt;div&gt;+name&lt;/div&gt;&lt;div&gt;+archived&lt;/div&gt;&lt;div&gt;+description&lt;/div&gt;&lt;div&gt;+url&lt;/div&gt;" style="align=left;strokeColor=none;fillColor=none;spacingLeft=4;fontSize=12;verticalAlign=top;resizable=0;rotatable=0;part=1;html=1;" vertex="1" parent="42KANhCV3RdPrASDDmub-1">
          <mxGeometry y="50" width="160" height="70" as="geometry" />
        </mxCell>
        <mxCell id="42KANhCV3RdPrASDDmub-22" style="edgeStyle=orthogonalEdgeStyle;rounded=0;orthogonalLoop=1;jettySize=auto;html=1;" edge="1" parent="1" source="42KANhCV3RdPrASDDmub-3" target="42KANhCV3RdPrASDDmub-1">
          <mxGeometry relative="1" as="geometry" />
        </mxCell>
        <mxCell id="42KANhCV3RdPrASDDmub-3" value="project" style="swimlane;childLayout=stackLayout;horizontal=1;startSize=50;horizontalStack=0;rounded=1;fontSize=14;fontStyle=0;strokeWidth=2;resizeParent=0;resizeLast=1;shadow=0;dashed=0;align=center;arcSize=4;whiteSpace=wrap;html=1;" vertex="1" parent="1">
          <mxGeometry x="280" y="240" width="160" height="120" as="geometry" />
        </mxCell>
        <mxCell id="42KANhCV3RdPrASDDmub-4" value="&lt;div&gt;+name -&amp;gt; all_repos&lt;/div&gt;&lt;div&gt;+github_access&lt;br&gt;&lt;/div&gt;" style="align=left;strokeColor=none;fillColor=none;spacingLeft=4;fontSize=12;verticalAlign=top;resizable=0;rotatable=0;part=1;html=1;" vertex="1" parent="42KANhCV3RdPrASDDmub-3">
          <mxGeometry y="50" width="160" height="70" as="geometry" />
        </mxCell>
        <mxCell id="42KANhCV3RdPrASDDmub-28" style="edgeStyle=orthogonalEdgeStyle;rounded=0;orthogonalLoop=1;jettySize=auto;html=1;" edge="1" parent="1" source="42KANhCV3RdPrASDDmub-5" target="42KANhCV3RdPrASDDmub-3">
          <mxGeometry relative="1" as="geometry" />
        </mxCell>
        <mxCell id="42KANhCV3RdPrASDDmub-5" value="deployments" style="swimlane;childLayout=stackLayout;horizontal=1;startSize=50;horizontalStack=0;rounded=1;fontSize=14;fontStyle=0;strokeWidth=2;resizeParent=0;resizeLast=1;shadow=0;dashed=0;align=center;arcSize=4;whiteSpace=wrap;html=1;" vertex="1" parent="1">
          <mxGeometry x="280" y="40" width="160" height="120" as="geometry" />
        </mxCell>
        <mxCell id="42KANhCV3RdPrASDDmub-6" value="&lt;div&gt;+project -&amp;gt; project.name&lt;/div&gt;&lt;div&gt;+name&lt;br/&gt;&lt;/div&gt;" style="align=left;strokeColor=none;fillColor=none;spacingLeft=4;fontSize=12;verticalAlign=top;resizable=0;rotatable=0;part=1;html=1;" vertex="1" parent="42KANhCV3RdPrASDDmub-5">
          <mxGeometry y="50" width="160" height="70" as="geometry" />
        </mxCell>
        <mxCell id="42KANhCV3RdPrASDDmub-21" style="edgeStyle=orthogonalEdgeStyle;rounded=0;orthogonalLoop=1;jettySize=auto;html=1;" edge="1" parent="1" source="42KANhCV3RdPrASDDmub-7" target="42KANhCV3RdPrASDDmub-3">
          <mxGeometry relative="1" as="geometry" />
        </mxCell>
        <mxCell id="42KANhCV3RdPrASDDmub-7" value="links" style="swimlane;childLayout=stackLayout;horizontal=1;startSize=50;horizontalStack=0;rounded=1;fontSize=14;fontStyle=0;strokeWidth=2;resizeParent=0;resizeLast=1;shadow=0;dashed=0;align=center;arcSize=4;whiteSpace=wrap;html=1;" vertex="1" parent="1">
          <mxGeometry x="520" y="240" width="160" height="120" as="geometry" />
        </mxCell>
        <mxCell id="42KANhCV3RdPrASDDmub-8" value="&lt;div&gt;+project -&amp;gt; project.name&lt;/div&gt;&lt;div&gt;+backstage&lt;br/&gt;&lt;/div&gt;" style="align=left;strokeColor=none;fillColor=none;spacingLeft=4;fontSize=12;verticalAlign=top;resizable=0;rotatable=0;part=1;html=1;" vertex="1" parent="42KANhCV3RdPrASDDmub-7">
          <mxGeometry y="50" width="160" height="70" as="geometry" />
        </mxCell>
        <mxCell id="42KANhCV3RdPrASDDmub-9" value="&lt;div&gt;squad&lt;/div&gt;" style="swimlane;childLayout=stackLayout;horizontal=1;startSize=50;horizontalStack=0;rounded=1;fontSize=14;fontStyle=0;strokeWidth=2;resizeParent=0;resizeLast=1;shadow=0;dashed=0;align=center;arcSize=4;whiteSpace=wrap;html=1;" vertex="1" parent="1">
          <mxGeometry x="280" y="640" width="160" height="120" as="geometry" />
        </mxCell>
        <mxCell id="42KANhCV3RdPrASDDmub-10" value="&lt;div&gt;+name&lt;/div&gt;&lt;div&gt;+backstage&lt;br&gt;&lt;/div&gt;" style="align=left;strokeColor=none;fillColor=none;spacingLeft=4;fontSize=12;verticalAlign=top;resizable=0;rotatable=0;part=1;html=1;" vertex="1" parent="42KANhCV3RdPrASDDmub-9">
          <mxGeometry y="50" width="160" height="70" as="geometry" />
        </mxCell>
        <mxCell id="42KANhCV3RdPrASDDmub-19" style="edgeStyle=orthogonalEdgeStyle;rounded=0;orthogonalLoop=1;jettySize=auto;html=1;" edge="1" parent="1" source="42KANhCV3RdPrASDDmub-11" target="42KANhCV3RdPrASDDmub-9">
          <mxGeometry relative="1" as="geometry" />
        </mxCell>
        <mxCell id="42KANhCV3RdPrASDDmub-11" value="squad_contato" style="swimlane;childLayout=stackLayout;horizontal=1;startSize=50;horizontalStack=0;rounded=1;fontSize=14;fontStyle=0;strokeWidth=2;resizeParent=0;resizeLast=1;shadow=0;dashed=0;align=center;arcSize=4;whiteSpace=wrap;html=1;" vertex="1" parent="1">
          <mxGeometry x="280" y="840" width="160" height="120" as="geometry" />
        </mxCell>
        <mxCell id="42KANhCV3RdPrASDDmub-12" value="&lt;div&gt;+squad -&amp;gt; squad.name&lt;/div&gt;&lt;div&gt;+contato&lt;br/&gt;&lt;/div&gt;" style="align=left;strokeColor=none;fillColor=none;spacingLeft=4;fontSize=12;verticalAlign=top;resizable=0;rotatable=0;part=1;html=1;" vertex="1" parent="42KANhCV3RdPrASDDmub-11">
          <mxGeometry y="50" width="160" height="70" as="geometry" />
        </mxCell>
        <mxCell id="42KANhCV3RdPrASDDmub-23" style="edgeStyle=orthogonalEdgeStyle;rounded=0;orthogonalLoop=1;jettySize=auto;html=1;" edge="1" parent="1" source="42KANhCV3RdPrASDDmub-13" target="42KANhCV3RdPrASDDmub-9">
          <mxGeometry relative="1" as="geometry" />
        </mxCell>
        <mxCell id="42KANhCV3RdPrASDDmub-27" style="edgeStyle=orthogonalEdgeStyle;rounded=0;orthogonalLoop=1;jettySize=auto;html=1;" edge="1" parent="1" source="42KANhCV3RdPrASDDmub-13" target="42KANhCV3RdPrASDDmub-3">
          <mxGeometry relative="1" as="geometry" />
        </mxCell>
        <mxCell id="42KANhCV3RdPrASDDmub-13" value="project_squad" style="swimlane;childLayout=stackLayout;horizontal=1;startSize=50;horizontalStack=0;rounded=1;fontSize=14;fontStyle=0;strokeWidth=2;resizeParent=0;resizeLast=1;shadow=0;dashed=0;align=center;arcSize=4;whiteSpace=wrap;html=1;" vertex="1" parent="1">
          <mxGeometry x="280" y="440" width="160" height="120" as="geometry" />
        </mxCell>
        <mxCell id="42KANhCV3RdPrASDDmub-14" value="&lt;div&gt;+project -&amp;gt; project.name&lt;/div&gt;&lt;div&gt;+squad -&amp;gt; squad.name&lt;br/&gt;&lt;/div&gt;" style="align=left;strokeColor=none;fillColor=none;spacingLeft=4;fontSize=12;verticalAlign=top;resizable=0;rotatable=0;part=1;html=1;" vertex="1" parent="42KANhCV3RdPrASDDmub-13">
          <mxGeometry y="50" width="160" height="70" as="geometry" />
        </mxCell>
      </root>
    </mxGraphModel>
  </diagram>
</mxfile>
